# xmcd
#
# Track frame offsets:
#	150
#	2452
#	16290
#	29337
#	42677
#	46095
#	67505
#	82900
#	85575
#	97512
#	122385
#	143217
#	187240
#	205245
#	218107
#	227370
#	240627
#	248230
#	279410
#	292502
#	316647
#	331875
#
# Disc length: 4739 seconds
#
# Revision: 0
# Processed by: cddbd v1.4PL0 Copyright (c) Steve Scherf et al.
# Submitted via: audiograbber 1.80.04
#
DISCID=09128116
DTITLE=Gram Parsons - Cosmic American Music(1972 Rehearsal Tapes)
DYEAR=1900
DGENRE=
TTITLE0=Song For You
TTITLE1=Kentucky Blues
TTITLE2=Streets Of Baltimore
TTITLE3=Folsom Prison Blues
TTITLE4=Lovesick Blues
TTITLE5=The New Soft Shoe
TTITLE6=How Much I've Lied
TTITLE7=Still Feeling Blue
TTITLE8=Still Feeling Blue (1)
TTITLE9=Ain't No Beatle, Ain't No Rollin' Stone
TTITLE10=How Can I Forget You, Cry One More Time
TTITLE11=A Song For You
TTITLE12=Streets Of Baltimore (1)
TTITLE13=That's All It Took
TTITLE14=Somebody's Back In Town
TTITLE15=More And More
TTITLE16=Teaching Emmy To Sweep Out The Ashes
TTITLE17=Daddy's Fiddle
TTITLE18=We'll Sweep Out The Ashes In The morning
TTITLE19=Cold Cold Heart
TTITLE20=That's All It Took (1)
TTITLE21=A Song For You (1)
EXTD=
EXTT0=
EXTT1=
EXTT2=
EXTT3=
EXTT4=
EXTT5=
EXTT6=
EXTT7=
EXTT8=
EXTT9=
EXTT10=
EXTT11=
EXTT12=
EXTT13=
EXTT14=
EXTT15=
EXTT16=
EXTT17=
EXTT18=
EXTT19=
EXTT20=
EXTT21=
PLAYORDER=
